<svg width="32" height="32" viewBox="0 0 32 32" fill="none" xmlns="http://www.w3.org/2000/svg">
<path d="M6.66671 17.5734V21.32C6.66671 22.2934 7.20004 23.2 8.05337 23.6667L14.72 27.3067C15.52 27.7467 16.48 27.7467 17.28 27.3067L23.9467 23.6667C24.8 23.2 25.3334 22.2934 25.3334 21.32V17.5734L17.28 21.9734C16.48 22.4134 15.52 22.4134 14.72 21.9734L6.66671 17.5734ZM14.72 4.69335L3.48004 10.8267C2.56004 11.3334 2.56004 12.6667 3.48004 13.1734L14.72 19.3067C15.52 19.7467 16.48 19.7467 17.28 19.3067L28 13.4534V21.3334C28 22.0667 28.6 22.6667 29.3334 22.6667C30.0667 22.6667 30.6667 22.0667 30.6667 21.3334V12.7867C30.6667 12.2934 30.4 11.8534 29.9734 11.6134L17.28 4.69335C16.48 4.26669 15.52 4.26669 14.72 4.69335Z" fill="white"/>
</svg>
