<svg width="32" height="32" viewBox="0 0 32 32" fill="none" xmlns="http://www.w3.org/2000/svg">
<path d="M19.4534 3.45335C18.9467 2.94669 18.2667 2.66669 17.56 2.66669H8.00004C6.53337 2.66669 5.33337 3.86669 5.33337 5.33335V26.6667C5.33337 28.1334 6.52004 29.3334 7.98671 29.3334H24C25.4667 29.3334 26.6667 28.1334 26.6667 26.6667V11.7734C26.6667 11.0667 26.3867 10.3867 25.88 9.89335L19.4534 3.45335ZM20 24H12C11.2667 24 10.6667 23.4 10.6667 22.6667C10.6667 21.9334 11.2667 21.3334 12 21.3334H20C20.7334 21.3334 21.3334 21.9334 21.3334 22.6667C21.3334 23.4 20.7334 24 20 24ZM20 18.6667H12C11.2667 18.6667 10.6667 18.0667 10.6667 17.3334C10.6667 16.6 11.2667 16 12 16H20C20.7334 16 21.3334 16.6 21.3334 17.3334C21.3334 18.0667 20.7334 18.6667 20 18.6667ZM17.3334 10.6667V4.66669L24.6667 12H18.6667C17.9334 12 17.3334 11.4 17.3334 10.6667Z" fill="white"/>
</svg>
