<svg width="259" height="48" viewBox="0 0 259 48" fill="none" xmlns="http://www.w3.org/2000/svg">
<path d="M14.313 27.1093L12.7365 22.5316C12.3788 21.4944 12.1395 20.5508 11.9015 19.6289H11.8533C11.6139 20.5724 11.3512 21.5404 11.0417 22.5085L9.46522 27.1093H14.313ZM9.03607 28.7136L7.36467 33.717H5.21594L10.6827 17.8126H13.1905L18.682 33.717H16.4603L14.7422 28.7136H9.03607Z" fill="#828483"/>
<path d="M22.8846 19.0859C22.8929 19.2576 22.8647 19.4289 22.8012 19.5891C22.7379 19.7492 22.6409 19.8941 22.517 20.0146C22.3929 20.1349 22.2445 20.2281 22.0814 20.2879C21.9182 20.3476 21.7443 20.3727 21.5707 20.3613C21.4001 20.3662 21.2301 20.3364 21.0714 20.274C20.9128 20.2117 20.7686 20.1179 20.6479 19.9985C20.5272 19.879 20.4326 19.7364 20.3696 19.5794C20.3067 19.4226 20.2768 19.2546 20.2819 19.0859C20.2783 18.9125 20.3105 18.7403 20.3766 18.5797C20.443 18.4192 20.5418 18.2738 20.6669 18.1524C20.7923 18.031 20.9414 17.9362 21.1051 17.874C21.2688 17.8117 21.4438 17.7833 21.6189 17.7903C21.79 17.7868 21.96 17.8181 22.1182 17.8824C22.2765 17.9469 22.4195 18.0431 22.5384 18.1647C22.6573 18.2864 22.7494 18.4309 22.8089 18.5895C22.8684 18.748 22.8942 18.9171 22.8846 19.0859ZM17.4646 37.0679C18.3118 37.0693 19.1291 36.758 19.7563 36.195C20.3301 35.5573 20.5446 34.6383 20.5446 31.9014V22.2974H22.6467V32.7037C22.6467 34.9212 22.2875 36.361 21.2614 37.3997C20.2705 38.2541 18.9953 38.7165 17.6806 38.6981L17.4646 37.0679Z" fill="#828483"/>
<path d="M35.1571 30.6034C35.1571 31.7822 35.1805 32.8208 35.2521 33.7169H33.3894L33.2713 31.8528H33.223C32.8335 32.5093 32.2746 33.0521 31.6034 33.4252C30.9323 33.7983 30.1728 33.9886 29.4028 33.9765C27.5869 33.9765 25.4149 32.9867 25.4149 28.9745V22.2962H27.517V28.6196C27.517 30.7924 28.1841 32.2553 30.0947 32.2553C30.4857 32.2557 30.873 32.1795 31.234 32.0311C31.5949 31.8827 31.9225 31.665 32.1978 31.3906C32.473 31.1163 32.6907 30.7906 32.8378 30.4326C32.9849 30.0747 33.0588 29.6914 33.0551 29.3049V22.2962H35.1571V30.6034Z" fill="#828483"/>
<path d="M38.0464 25.388C38.0464 24.2078 38.0215 23.2383 37.95 22.2962H39.8126L39.9324 24.1848H39.9806C40.3588 23.5167 40.9146 22.9636 41.5878 22.5852C42.2612 22.2069 43.0263 22.0177 43.8006 22.038C45.3991 22.038 47.882 22.9801 47.882 26.8986V33.7169H45.7815V27.1337C45.7815 25.2927 45.0895 23.7591 43.1073 23.7591C42.4695 23.7693 41.8519 23.9811 41.3448 24.3635C40.8378 24.7459 40.4682 25.279 40.2899 25.8843C40.189 26.1966 40.1407 26.5232 40.147 26.8509V33.7169H38.0464V25.388Z" fill="#828483"/>
<path d="M53.1362 19.5586V22.2969H56.1433V23.8781H53.1362V30.0356C53.1362 31.4538 53.5419 32.2546 54.7112 32.2546C55.1226 32.2712 55.5339 32.2234 55.9301 32.1132L56.0251 33.6713C55.4289 33.8873 54.7972 33.991 54.1625 33.9772C53.7412 33.998 53.3204 33.9286 52.9288 33.7738C52.5372 33.6187 52.1844 33.3821 51.8941 33.0797C51.2969 32.4666 51.0823 31.4538 51.0823 30.1063V23.8781H49.2927V22.2969H51.0823V20.1949L53.1362 19.5586Z" fill="#828483"/>
<path d="M64.0003 27.8903C61.7071 27.8428 59.1058 28.2424 59.1058 30.4599C59.084 30.7237 59.12 30.9889 59.2115 31.2379C59.3029 31.4866 59.4477 31.713 59.6356 31.9013C59.8238 32.0898 60.0507 32.2359 60.3011 32.3298C60.5515 32.4235 60.8195 32.4629 61.0866 32.4451C61.6977 32.4608 62.2981 32.2837 62.8005 31.9395C63.3028 31.5952 63.681 31.1018 63.8805 30.5305C63.955 30.3183 63.9953 30.0959 64.0003 29.8713V27.8903ZM66.0293 30.9793C66.0133 31.8957 66.0773 32.8119 66.2205 33.7176H64.3097L64.1433 32.2792H64.0717C63.6611 32.8187 63.1264 33.254 62.512 33.5494C61.8976 33.8446 61.2209 33.9912 60.5378 33.9772C60.0833 34.0101 59.6268 33.9495 59.1971 33.7992C58.7676 33.6487 58.3743 33.4119 58.0421 33.1036C57.7099 32.7952 57.4462 32.4221 57.2674 32.0076C57.0886 31.5933 56.9989 31.1468 57.0037 30.6964C57.0037 27.9352 59.4867 26.4275 63.9521 26.4505V26.214C63.9521 25.2705 63.6893 23.5708 61.326 23.5708C60.2633 23.5743 59.2221 23.8679 58.3176 24.4192L57.8403 23.0514C58.9849 22.3705 60.2995 22.0192 61.6355 22.0373C65.1696 22.0373 66.0293 24.4192 66.0293 26.7089V30.9793Z" fill="#828483"/>
<path d="M68.8231 25.388C68.8231 24.2078 68.7997 23.2383 68.7267 22.2962H70.5659L70.6609 24.1372H70.7323C71.0791 23.4876 71.6027 22.9468 72.2439 22.5759C72.8851 22.2051 73.6185 22.0187 74.3612 22.0379C75.0808 22.0297 75.7846 22.2464 76.372 22.657C76.9595 23.0678 77.4007 23.6514 77.6325 24.3246H77.6807C78.0001 23.7454 78.4393 23.2392 78.9696 22.8387C79.7004 22.2851 80.6042 22.0017 81.5241 22.0379C83.0524 22.0379 85.3208 23.0291 85.3208 26.9937V33.7168H83.267V27.2505C83.267 25.0562 82.4555 23.7346 80.7606 23.7346C80.2004 23.7577 79.6608 23.9516 79.2163 24.2897C78.7717 24.6278 78.4438 25.0937 78.2777 25.6231C78.1676 25.9587 78.1109 26.3091 78.1098 26.6619V33.7168H76.0575V26.874C76.0575 25.0562 75.2459 23.7346 73.6461 23.7346C72.8802 23.8234 72.1743 24.1878 71.6633 24.7584C71.1521 25.3291 70.8717 26.0657 70.8755 26.8278V33.7168H68.8231V25.388Z" fill="#828483"/>
<path d="M95.4688 26.8977C95.4936 25.5763 94.92 23.5233 92.5552 23.5233C90.4312 23.5233 89.4999 25.4578 89.3336 26.8977H95.4688ZM89.3087 28.3837C89.3569 31.1928 91.1714 32.3483 93.272 32.3483C94.3689 32.3821 95.4603 32.1812 96.4717 31.7597L96.8293 33.2458C95.6154 33.7571 94.3051 34.0064 92.9858 33.9771C89.4285 33.9771 87.3031 31.6414 87.3031 28.1961C87.3031 24.751 89.3569 22.0372 92.723 22.0372C96.4951 22.0372 97.4978 25.3151 97.4978 27.4157C97.4944 27.7394 97.471 28.0628 97.4278 28.3837H89.3087Z" fill="#828483"/>
<path d="M99.5039 25.3879C99.5039 24.2077 99.4805 23.2383 99.4091 22.2961H101.27L101.39 24.1848H101.438C101.817 23.517 102.372 22.9641 103.046 22.5857C103.719 22.2073 104.484 22.018 105.258 22.0379C106.858 22.0379 109.341 22.9801 109.341 26.8985V33.7168H107.24V27.1336C107.24 25.2926 106.547 23.7591 104.566 23.7591C103.762 23.7905 103.002 24.1314 102.449 24.7091C101.896 25.2869 101.593 26.0556 101.606 26.8509V33.7168H99.5039V25.3879Z" fill="#828483"/>
<path d="M114.594 19.5586V22.2969H117.602V23.8781H114.594V30.0356C114.594 31.4538 115 32.2546 116.169 32.2546C116.58 32.2712 116.992 32.2234 117.388 32.1132L117.483 33.6713C116.887 33.8873 116.255 33.991 115.62 33.9772C115.199 33.998 114.778 33.9286 114.387 33.7738C113.995 33.6187 113.642 33.3821 113.352 33.0797C112.755 32.4666 112.54 31.4538 112.54 30.1063V23.8781H110.75V22.2969H112.54V20.1949L114.594 19.5586Z" fill="#828483"/>
<path d="M166.764 27.0624C166.76 26.8501 166.745 26.6383 166.717 26.4275C166.627 25.9339 166.365 25.487 165.977 25.1636C165.588 24.8402 165.098 24.6606 164.591 24.6559C162.944 24.6559 162.084 26.1203 162.084 27.9353C162.084 29.8944 163.062 31.1208 164.569 31.1208C165.068 31.1231 165.552 30.9518 165.936 30.6368C166.32 30.3218 166.58 29.8834 166.669 29.3981C166.739 29.1287 166.771 28.851 166.764 28.573V27.0624ZM170.393 16.9634V30.271C170.393 31.5681 170.441 32.9371 170.49 33.7177H167.266L167.098 32.0181H167.05C166.675 32.6386 166.139 33.1479 165.496 33.4925C164.853 33.8372 164.129 34.0047 163.398 33.9774C160.628 33.9774 158.407 31.6401 158.407 28.0536C158.384 24.1596 160.844 21.9176 163.638 21.9176C165.069 21.9176 166.192 22.4139 166.717 23.2161H166.764V16.9634H170.393Z" fill="#828483"/>
<path d="M180.374 26.6372C180.374 25.7645 179.992 24.3015 178.32 24.3015C176.794 24.3015 176.173 25.6721 176.075 26.6372H180.374ZM176.1 29.0913C176.22 30.5802 177.7 31.2885 179.395 31.2885C180.487 31.3 181.575 31.1405 182.618 30.8153L183.097 33.2463C181.746 33.7489 180.313 33.9966 178.871 33.9763C174.906 33.9763 172.638 31.6883 172.638 28.0784C172.638 25.1497 174.476 21.9182 178.535 21.9182C182.309 21.9182 183.741 24.8223 183.741 27.676C183.741 28.1503 183.701 28.6236 183.62 29.0913H176.1Z" fill="#828483"/>
<path d="M194.462 25.2461C194.863 25.3207 195.272 25.3521 195.678 25.34C197.613 25.34 198.808 24.3719 198.808 22.7431C198.808 21.2801 197.781 20.4088 195.966 20.4088C195.461 20.3951 194.955 20.4426 194.462 20.5501V25.2461ZM190.856 18.0254C192.484 17.7817 194.128 17.6712 195.773 17.695C198.018 17.695 199.619 18.1191 200.691 18.9689C201.241 19.4146 201.682 19.9775 201.981 20.6153C202.277 21.2533 202.427 21.9497 202.412 22.6521C202.441 23.348 202.322 24.042 202.069 24.6914C201.813 25.3408 201.427 25.9317 200.932 26.4277C199.691 27.5834 197.851 28.1012 195.702 28.1012C195.288 28.1057 194.872 28.0821 194.462 28.0306V33.7177H190.856V18.0254Z" fill="#828483"/>
<path d="M210.387 28.2673C208.477 28.2428 206.997 28.6916 206.997 30.0824C206.984 30.2696 207.013 30.4576 207.08 30.633C207.148 30.8083 207.254 30.9669 207.391 31.0975C207.527 31.2281 207.691 31.3277 207.871 31.3894C208.051 31.4511 208.241 31.4731 208.43 31.4544C208.846 31.4561 209.25 31.3295 209.589 31.0919C209.927 30.8542 210.182 30.5179 210.315 30.1298C210.364 29.9291 210.389 29.7232 210.387 29.5167V28.2673ZM213.92 30.9105C213.902 31.8493 213.957 32.7879 214.089 33.7179H210.819L210.601 32.5594H210.531C210.116 33.0281 209.601 33.3986 209.022 33.6438C208.443 33.8889 207.817 34.0026 207.187 33.9761C206.702 34.0024 206.214 33.9302 205.758 33.7642C205.301 33.5981 204.883 33.3415 204.529 33.0102C204.177 32.6789 203.896 32.2799 203.704 31.8373C203.511 31.395 203.414 30.9185 203.414 30.4373C203.414 27.4406 206.137 26.0024 210.268 26.0225V25.861C210.268 25.2463 209.934 24.3721 208.143 24.3721C207.009 24.3842 205.9 24.6853 204.919 25.2463L204.25 22.9321C205.657 22.2345 207.214 21.8864 208.788 21.918C212.679 21.918 213.92 24.1845 213.92 26.8982V30.9105Z" fill="#828483"/>
<path d="M220.416 16.9634H216.787V33.7177H220.416V16.9634Z" fill="#828483"/>
<path d="M223.352 25.8608C223.352 24.4195 223.303 23.1933 223.256 22.1791H226.312L226.479 23.7342H226.549C226.931 23.1566 227.458 22.6859 228.076 22.3678C228.695 22.0495 229.388 21.8946 230.084 21.9179C230.756 21.8846 231.422 22.0542 231.994 22.4042C232.566 22.7542 233.015 23.2679 233.285 23.8772H233.334C233.73 23.3126 234.242 22.838 234.837 22.4848C235.51 22.0971 236.278 21.9008 237.055 21.9179C239.302 21.9179 240.996 23.476 240.996 26.9213V33.7179H237.463V27.4392C237.463 25.7642 236.913 24.799 235.744 24.799C235.366 24.8051 235.001 24.9295 234.701 25.1544C234.4 25.3794 234.181 25.6929 234.073 26.0498C233.976 26.3469 233.927 26.657 233.929 26.9688V33.7179H230.395V27.2517C230.395 25.7888 229.87 24.799 228.724 24.799C228.339 24.8139 227.97 24.9468 227.666 25.1793C227.362 25.4119 227.139 25.7323 227.03 26.096C226.924 26.3833 226.875 26.688 226.886 26.9933V33.7179H223.352V25.8608Z" fill="#828483"/>
<path d="M250.093 28.2673C248.183 28.2428 246.703 28.6916 246.703 30.0823C246.69 30.2696 246.719 30.4574 246.786 30.6328C246.854 30.8081 246.96 30.9665 247.097 31.0972C247.233 31.2279 247.397 31.3274 247.577 31.3892C247.757 31.4509 247.948 31.4731 248.136 31.4544C248.552 31.4565 248.957 31.3296 249.295 31.0921C249.633 30.8545 249.888 30.518 250.021 30.1298C250.072 29.9291 250.095 29.7232 250.093 29.5167V28.2673ZM253.626 30.9104C253.608 31.8492 253.664 32.788 253.795 33.7179H250.525L250.307 32.5594H250.237C249.822 33.028 249.307 33.3987 248.728 33.644C248.149 33.8892 247.523 34.0028 246.894 33.9761C246.408 34.0024 245.92 33.9302 245.464 33.7642C245.007 33.5979 244.59 33.3414 244.237 33.01C243.883 32.6787 243.602 32.2797 243.41 31.8373C243.219 31.3948 243.12 30.9185 243.122 30.4373C243.122 27.4406 245.845 26.0023 249.975 26.0225V25.8608C249.975 25.2463 249.642 24.3719 247.85 24.3719C246.717 24.3837 245.608 24.685 244.627 25.2463L243.958 22.9321C245.365 22.2343 246.921 21.8861 248.494 21.918C252.385 21.918 253.626 24.1845 253.626 26.8982V30.9104Z" fill="#828483"/>
<path d="M135.996 7.65541C136.039 7.69372 136.073 7.74114 136.095 7.7941C136.116 7.84707 136.126 7.90422 136.122 7.96126C136.11 8.19642 135.961 8.29163 135.92 8.38974C135.889 8.4479 135.872 8.51272 135.871 8.57876C135.87 8.64479 135.885 8.71009 135.915 8.76918C135.968 8.86364 136.047 8.94126 136.143 8.99308C136.239 9.0449 136.348 9.06881 136.458 9.06205C136.623 9.06447 136.782 9.00202 136.901 8.88839C137.019 8.77477 137.087 8.6193 137.09 8.45613C137.085 8.22125 136.988 7.99747 136.818 7.83287C136.474 7.40441 136.185 6.78542 136.618 6.54883C136.995 6.33965 137.405 6.65995 137.713 6.95715C137.77 6.95082 137.828 6.94744 137.885 6.94702C137.944 6.94748 138.002 6.95086 138.06 6.95715C138.365 6.65995 138.776 6.33965 139.152 6.54883C139.586 6.78545 139.297 7.40439 138.951 7.83287C138.788 8.00225 138.692 8.22314 138.679 8.45613C138.682 8.6193 138.75 8.77479 138.868 8.88839C138.987 9.00202 139.146 9.06447 139.311 9.06205C139.42 9.06936 139.529 9.04567 139.625 8.99377C139.721 8.94188 139.8 8.86396 139.853 8.76918C139.884 8.71051 139.9 8.64514 139.899 8.57892C139.898 8.5127 139.881 8.44769 139.848 8.38974C139.808 8.29163 139.66 8.19641 139.647 7.96126C139.644 7.90413 139.653 7.847 139.675 7.79406C139.697 7.74112 139.731 7.69374 139.774 7.65541C140.116 7.30485 141.041 7.37843 142.397 8.46622C143.343 9.21746 144.02 10.2492 144.328 11.4094C144.017 10.9434 143.547 10.6034 143.003 10.4514C142.699 10.374 142.38 10.3729 142.075 10.4483C141.77 10.5236 141.489 10.6729 141.257 10.8828C140.889 10.5742 140.427 10.3951 139.945 10.3735C139.638 10.3726 139.336 10.438 139.057 10.5651C138.779 10.6922 138.533 10.878 138.335 11.1093L138.697 11.5536C138.908 11.8133 138.682 11.9619 138.682 11.9619L138.452 12.1552C138.452 12.1552 138.396 12.2014 138.431 12.2432C138.472 12.2937 138.513 12.262 138.535 12.2432C138.653 12.1485 138.788 12.077 138.933 12.0326C139.056 12.0449 139.173 12.0916 139.27 12.1672C139.367 12.2429 139.44 12.3443 139.481 12.4596C139.628 12.8102 139.215 13.2402 139.113 13.3642C139 13.5013 138.776 13.7191 138.53 13.5056C138.507 13.4763 138.475 13.4539 138.44 13.4406C138.404 13.4274 138.366 13.4238 138.328 13.4303C138.291 13.4368 138.256 13.4531 138.227 13.4775C138.198 13.5019 138.176 13.5336 138.164 13.5691C138.162 13.6966 138.19 13.8229 138.245 13.9383C138.3 14.0537 138.381 14.1553 138.482 14.2353C138.582 14.3153 138.7 14.3717 138.825 14.4003C138.951 14.4288 139.082 14.4288 139.208 14.4001C139.351 14.3744 139.486 14.316 139.602 14.2296C139.719 14.1432 139.813 14.0311 139.878 13.9023L140.016 13.9139C140.07 14.1 140.184 14.2636 140.34 14.38C140.497 14.4964 140.687 14.5593 140.883 14.5591C141.079 14.559 141.27 14.4958 141.426 14.3791C141.582 14.2624 141.695 14.0986 141.749 13.9125C141.744 13.8753 141.728 13.8403 141.704 13.8111C141.681 13.7819 141.649 13.7596 141.614 13.7466C141.578 13.7336 141.54 13.7303 141.502 13.7371C141.465 13.744 141.43 13.7607 141.402 13.7855C141.123 13.9514 140.94 13.6989 140.853 13.5446C140.775 13.4075 140.443 12.9127 140.65 12.5895C140.711 12.4835 140.801 12.3967 140.91 12.3393C141.018 12.2818 141.141 12.256 141.264 12.2649C141.399 12.3347 141.519 12.4286 141.619 12.5419C141.638 12.5635 141.673 12.5996 141.72 12.5606C141.764 12.5231 141.717 12.4683 141.717 12.4683L141.524 12.2389C141.524 12.2389 141.327 12.0557 141.581 11.8349L142.118 11.3704C142.17 11.3306 142.23 11.3023 142.294 11.2874C142.357 11.2724 142.423 11.2712 142.488 11.2838C142.553 11.2931 142.615 11.3163 142.67 11.352C142.725 11.3877 142.771 11.4348 142.806 11.4901L143.149 12.1062C143.314 12.3991 143.064 12.5072 143.064 12.5072L142.803 12.6587C142.803 12.6587 142.739 12.6919 142.769 12.7424C142.799 12.7972 142.844 12.7727 142.87 12.7612C143.002 12.6866 143.148 12.6386 143.299 12.6198C143.418 12.6526 143.525 12.7185 143.607 12.8095C143.689 12.9006 143.743 13.013 143.762 13.1334C143.847 13.5056 143.362 13.8576 143.241 13.9615C143.107 14.0769 142.847 14.2529 142.644 14.0005C142.626 13.9676 142.6 13.9401 142.567 13.921C142.535 13.9019 142.498 13.892 142.46 13.8923C142.423 13.8926 142.386 13.9031 142.354 13.9227C142.322 13.9423 142.296 13.9702 142.279 14.0034C142.27 14.1249 142.286 14.247 142.327 14.3619C142.368 14.4769 142.433 14.5822 142.517 14.6711C142.601 14.7601 142.703 14.8308 142.816 14.8788C142.93 14.9267 143.052 14.9509 143.175 14.9498C143.317 14.9492 143.457 14.9166 143.585 14.8547C143.712 14.7927 143.824 14.7028 143.911 14.592L144.058 14.6309C144.083 14.8211 144.169 14.9983 144.303 15.1363C144.438 15.2743 144.614 15.3656 144.806 15.3968C144.997 15.4279 145.193 15.3971 145.366 15.309C145.538 15.221 145.677 15.0803 145.762 14.9079C145.763 14.8708 145.754 14.834 145.735 14.8015C145.717 14.7691 145.69 14.7422 145.657 14.7237C145.625 14.7052 145.588 14.6957 145.55 14.6964C145.512 14.6971 145.476 14.7079 145.444 14.7276C145.14 14.8459 145.004 14.566 144.946 14.4001C144.893 14.25 144.654 13.7061 144.914 13.4234C144.992 13.329 145.096 13.2589 145.214 13.2213C145.331 13.1837 145.457 13.1802 145.577 13.2113C145.697 13.3012 145.799 13.4134 145.876 13.5417C145.892 13.5676 145.92 13.6095 145.972 13.5792C146.023 13.5489 145.987 13.4868 145.987 13.4868L145.836 13.2257C145.836 13.2257 145.676 13.0108 145.963 12.8376L146.576 12.4755C146.634 12.4446 146.697 12.4267 146.762 12.4229C146.827 12.4192 146.893 12.4298 146.953 12.4538C147.803 12.8131 146.613 14.3395 146.613 14.3395L145.752 16.2309L145.429 16.0967C145.362 16.0623 145.288 16.042 145.212 16.0371C145.136 16.0322 145.06 16.0428 144.989 16.0683C144.917 16.0937 144.852 16.1335 144.797 16.1851C144.741 16.2366 144.698 16.2989 144.668 16.368C144.638 16.4371 144.623 16.5115 144.624 16.5866C144.625 16.6616 144.641 16.7357 144.672 16.8042C144.703 16.8728 144.748 16.9342 144.804 16.9848C144.86 17.0353 144.927 17.0738 144.998 17.098L145.26 17.2047L144.998 17.7241C142.708 16.9362 140.304 16.5206 137.879 16.4935C135.442 16.4941 133.023 16.8964 130.719 17.6838L130.486 17.2047L130.747 17.098C130.819 17.074 130.885 17.0356 130.942 16.9852C130.998 16.9348 131.043 16.8734 131.074 16.8049C131.106 16.7364 131.122 16.6623 131.123 16.5872C131.124 16.5121 131.109 16.4376 131.079 16.3684C131.05 16.2993 131.006 16.2369 130.951 16.1853C130.896 16.1336 130.83 16.0938 130.759 16.0683C130.687 16.0427 130.611 16.0321 130.535 16.037C130.459 16.0419 130.385 16.0622 130.318 16.0967L130.007 16.2251L129.225 14.3395C129.225 14.3395 127.966 12.8131 128.817 12.4538C128.878 12.43 128.944 12.4196 129.009 12.4233C129.074 12.427 129.138 12.4448 129.196 12.4755L129.806 12.8376C130.095 13.0107 129.934 13.2257 129.934 13.2257L129.784 13.4868C129.784 13.4868 129.747 13.5488 129.797 13.5792C129.849 13.6094 129.877 13.5676 129.893 13.5416C129.971 13.4134 130.073 13.3013 130.194 13.2113C130.313 13.1804 130.439 13.184 130.557 13.2216C130.674 13.2591 130.778 13.3292 130.857 13.4233C131.116 13.7061 130.876 14.25 130.823 14.4001C130.765 14.566 130.63 14.8459 130.325 14.7276C130.293 14.7079 130.257 14.6971 130.219 14.6964C130.181 14.6957 130.144 14.7051 130.112 14.7236C130.079 14.7421 130.052 14.769 130.033 14.8015C130.015 14.8339 130.006 14.8707 130.007 14.9079C130.093 15.0813 130.233 15.2226 130.407 15.3105C130.58 15.3985 130.778 15.4283 130.97 15.3957C131.163 15.363 131.339 15.2695 131.473 15.1293C131.607 14.989 131.691 14.8096 131.714 14.6179L131.851 14.5833C131.938 14.6971 132.051 14.7894 132.18 14.853C132.31 14.9165 132.452 14.9497 132.597 14.9497C132.72 14.9507 132.842 14.9264 132.955 14.8784C133.068 14.8304 133.17 14.7596 133.254 14.6707C133.338 14.5817 133.403 14.4765 133.444 14.3616C133.484 14.2467 133.501 14.1247 133.491 14.0033C133.474 13.9702 133.448 13.9423 133.416 13.9227C133.384 13.9031 133.348 13.8926 133.31 13.8923C133.272 13.892 133.235 13.9019 133.203 13.921C133.171 13.9401 133.144 13.9675 133.127 14.0004C132.924 14.2529 132.664 14.0769 132.529 13.9615C132.407 13.8576 131.924 13.5056 132.007 13.1334C132.026 13.0125 132.08 12.8998 132.163 12.8087C132.246 12.7176 132.353 12.652 132.473 12.6198C132.623 12.639 132.768 12.687 132.9 12.7611C132.925 12.7727 132.973 12.7972 133.002 12.7424C133.03 12.6919 132.967 12.6587 132.967 12.6587L132.706 12.5072C132.706 12.5072 132.457 12.399 132.62 12.1061L132.963 11.4902C132.999 11.4363 133.046 11.3902 133.1 11.3548C133.155 11.3194 133.216 11.2954 133.281 11.2842C133.345 11.273 133.411 11.2749 133.475 11.2897C133.538 11.3045 133.598 11.332 133.65 11.3704L134.189 11.835C134.443 12.0557 134.246 12.2389 134.246 12.2389L134.052 12.4683C134.052 12.4683 134.005 12.5232 134.049 12.5607C134.097 12.5996 134.132 12.5635 134.151 12.5419C134.251 12.429 134.372 12.3351 134.506 12.2649C134.629 12.2562 134.752 12.2821 134.861 12.3395C134.969 12.397 135.06 12.4836 135.12 12.5895C135.328 12.9127 134.995 13.4075 134.918 13.5446C134.829 13.699 134.648 13.9514 134.369 13.7855C134.34 13.7607 134.306 13.7441 134.268 13.7372C134.231 13.7303 134.192 13.7336 134.157 13.7466C134.121 13.7596 134.09 13.7819 134.066 13.8111C134.042 13.8403 134.027 13.8753 134.021 13.9125C134.075 14.0989 134.189 14.2629 134.345 14.3796C134.502 14.4964 134.693 14.5594 134.889 14.5593C135.085 14.5591 135.276 14.4957 135.432 14.3787C135.589 14.2618 135.702 14.0975 135.756 13.911L135.89 13.9009C135.955 14.0302 136.05 14.1426 136.167 14.2292C136.283 14.3159 136.419 14.3744 136.563 14.4001C136.688 14.4289 136.819 14.429 136.945 14.4004C137.071 14.3719 137.188 14.3155 137.289 14.2354C137.389 14.1553 137.47 14.0537 137.525 13.9383C137.579 13.8229 137.607 13.6966 137.605 13.5691C137.593 13.5336 137.571 13.5019 137.542 13.4775C137.513 13.4531 137.478 13.4368 137.441 13.4303C137.403 13.4238 137.365 13.4274 137.329 13.4407C137.294 13.4539 137.262 13.4764 137.239 13.5056C136.995 13.7192 136.77 13.5013 136.658 13.3643C136.555 13.2402 136.142 12.8102 136.288 12.4597C136.329 12.3444 136.403 12.243 136.5 12.1674C136.597 12.0918 136.714 12.045 136.837 12.0326C136.982 12.077 137.117 12.1485 137.234 12.2433C137.258 12.262 137.3 12.2938 137.338 12.2433C137.374 12.2014 137.319 12.1553 137.319 12.1553L137.088 11.9619C137.088 11.9619 136.862 11.8133 137.074 11.5537L137.437 11.1093C137.239 10.8782 136.992 10.6926 136.714 10.5656C136.435 10.4385 136.132 10.3729 135.826 10.3735C135.344 10.3997 134.883 10.5783 134.512 10.8828C134.28 10.673 134 10.5236 133.695 10.4483C133.39 10.373 133.072 10.374 132.767 10.4514C132.223 10.6034 131.753 10.9434 131.441 11.4094C131.75 10.2492 132.427 9.21767 133.373 8.46626C134.729 7.37844 135.653 7.30488 135.996 7.65542L135.996 7.65541ZM133.148 15.8573C133.181 16.0036 133.271 16.1312 133.398 16.2123C133.526 16.2934 133.68 16.3214 133.829 16.2901L134.413 16.1877C134.488 16.1804 134.562 16.1577 134.628 16.121C134.695 16.0843 134.753 16.0345 134.799 15.9745C134.845 15.9146 134.878 15.8459 134.896 15.7728C134.914 15.6997 134.916 15.6237 134.903 15.5496C134.89 15.4755 134.861 15.4049 134.819 15.3422C134.777 15.2795 134.722 15.2262 134.658 15.1854C134.594 15.1447 134.522 15.1175 134.447 15.1055C134.372 15.0935 134.295 15.097 134.221 15.1157L133.637 15.2182C133.563 15.2284 133.491 15.253 133.426 15.2907C133.361 15.3283 133.304 15.3783 133.259 15.4376C133.214 15.497 133.181 15.5646 133.161 15.6366C133.143 15.7086 133.138 15.7836 133.148 15.8573ZM142.626 15.8573C142.647 15.7085 142.607 15.5577 142.515 15.4379C142.424 15.3181 142.288 15.2391 142.137 15.2182L141.552 15.1157C141.478 15.0972 141.402 15.0938 141.327 15.106C141.251 15.1181 141.18 15.1454 141.116 15.1863C141.052 15.2271 140.997 15.2805 140.955 15.3432C140.913 15.4059 140.885 15.4764 140.872 15.5505C140.859 15.6245 140.861 15.7004 140.879 15.7735C140.897 15.8465 140.93 15.9151 140.976 15.9749C141.022 16.0348 141.08 16.0845 141.147 16.1212C141.213 16.1578 141.287 16.1804 141.362 16.1877L141.946 16.2901C142.094 16.3214 142.249 16.2934 142.377 16.2123C142.504 16.1312 142.594 16.0036 142.626 15.8573ZM136.996 15.3754C137.003 15.5252 137.069 15.6665 137.18 15.7684C137.291 15.8704 137.439 15.9246 137.59 15.9193H138.184C138.26 15.9249 138.336 15.9149 138.408 15.8901C138.48 15.8653 138.545 15.8261 138.601 15.7751C138.656 15.724 138.701 15.6622 138.731 15.5934C138.761 15.5247 138.777 15.4504 138.777 15.3754C138.777 15.3004 138.761 15.2262 138.731 15.1574C138.701 15.0886 138.656 15.0268 138.601 14.9757C138.545 14.9247 138.48 14.8855 138.408 14.8607C138.336 14.8359 138.26 14.826 138.184 14.8315H137.59C137.439 14.8262 137.291 14.8805 137.18 14.9824C137.069 15.0843 137.003 15.2256 136.996 15.3754Z" fill="#828483"/>
<path d="M139.404 26.269H139.864V26.9599H139.404V26.269ZM127.349 29.2366C127.257 29.3275 127.206 29.4508 127.206 29.5792C127.206 29.7076 127.257 29.831 127.349 29.9219L137.509 39.956C137.601 40.0467 137.726 40.0977 137.856 40.0977C137.986 40.0977 138.11 40.0467 138.202 39.956L148.361 29.9219C148.406 29.877 148.443 29.8236 148.468 29.7649C148.492 29.706 148.505 29.643 148.505 29.5792C148.505 29.5154 148.492 29.4524 148.468 29.3935C148.443 29.3348 148.406 29.2814 148.361 29.2366L138.201 19.2025C138.109 19.1117 137.984 19.0607 137.854 19.0607C137.724 19.0607 137.599 19.1117 137.508 19.2025L127.349 29.2366ZM136.766 18.106C136.905 17.9685 137.07 17.8593 137.251 17.7849C137.433 17.7104 137.628 17.6721 137.824 17.6721C138.021 17.6721 138.216 17.7104 138.397 17.7849C138.579 17.8593 138.744 17.9685 138.883 18.106L149.464 28.56C149.603 28.697 149.713 28.8599 149.788 29.0391C149.863 29.2183 149.902 29.4105 149.902 29.6044C149.902 29.7985 149.863 29.9905 149.788 30.1698C149.713 30.349 149.603 30.5119 149.464 30.6491L138.883 41.1029C138.602 41.38 138.221 41.5358 137.824 41.5358C137.427 41.5358 137.047 41.38 136.766 41.1029L126.183 30.6491C126.044 30.5121 125.933 30.3491 125.858 30.1699C125.783 29.9907 125.744 29.7985 125.744 29.6044C125.744 29.4103 125.783 29.2182 125.858 29.039C125.933 28.8597 126.044 28.6968 126.183 28.56L136.766 18.106ZM137.872 20.0018L145.876 27.9064C145.705 27.9583 145.524 27.9759 145.346 27.9583C145.168 27.9407 144.995 27.8882 144.837 27.8039C144.673 27.7165 144.489 27.6708 144.302 27.6708C144.116 27.6708 143.933 27.7165 143.768 27.8039C143.544 27.9297 143.286 27.9842 143.03 27.9597L143.031 27.5212H142.678L142.679 26.2732H143.071V25.4495H141.29V25.9832H140.932V25.1334C141.182 24.9893 141.801 25.1522 141.801 25.1522C141.709 25.0592 141.598 24.9856 141.477 24.9362C141.355 24.8869 141.224 24.8626 141.093 24.8651C141.201 24.6862 141.963 24.7063 141.963 24.7063C141.471 24.4338 141.202 24.5594 141.202 24.5594C141.322 24.2621 141.963 24.1265 141.963 24.1265C141.793 24.0734 141.613 24.0645 141.44 24.1007C141.266 24.1368 141.105 24.2167 140.971 24.3328C141.072 24.1472 141.201 23.9786 141.355 23.8336C141.531 23.7153 140.945 23.8019 140.771 24.1135C140.595 23.8019 140.023 23.7153 140.199 23.8336C140.353 23.9785 140.482 24.1472 140.582 24.3328C140.449 24.2169 140.288 24.137 140.114 24.1007C139.941 24.0646 139.761 24.0734 139.592 24.1265C139.592 24.1265 140.231 24.2621 140.353 24.5594C140.353 24.5594 140.084 24.4338 139.592 24.7063C139.592 24.7063 140.353 24.6862 140.461 24.8651C140.329 24.8628 140.199 24.887 140.077 24.9364C139.956 24.9858 139.846 25.0592 139.754 25.1522C139.754 25.1522 140.371 24.9893 140.623 25.1334V25.9832H140.264V25.4495H138.484V26.2732H138.875V27.5212H138.521V27.9626C138.297 27.9735 138.075 27.9299 137.872 27.8356V20.0018ZM146.18 28.2051L146.549 28.5686C146.394 28.5772 146.243 28.6222 146.108 28.7C145.913 28.8042 145.695 28.8589 145.472 28.8589C145.251 28.8589 145.032 28.8042 144.837 28.7C144.673 28.6119 144.489 28.5658 144.302 28.5658C144.116 28.5658 143.932 28.6119 143.768 28.7C143.573 28.8042 143.355 28.8589 143.133 28.8589C142.912 28.8589 142.693 28.8042 142.498 28.7C142.336 28.6119 142.154 28.5658 141.969 28.5658C141.784 28.5658 141.602 28.6119 141.44 28.7C141.243 28.8037 141.023 28.8578 140.8 28.8578C140.577 28.8578 140.357 28.8037 140.16 28.7C139.998 28.6119 139.816 28.5658 139.631 28.5658C139.446 28.5658 139.264 28.6119 139.102 28.7C138.913 28.7984 138.704 28.8524 138.49 28.8571C138.277 28.8618 138.065 28.8173 137.872 28.7273V28.2787C138.065 28.368 138.276 28.4118 138.488 28.4062C138.7 28.4008 138.908 28.3461 139.096 28.2468C139.258 28.1595 139.44 28.1138 139.625 28.1138C139.81 28.1138 139.992 28.1595 140.154 28.2468C140.351 28.3512 140.571 28.4058 140.794 28.4058C141.018 28.4058 141.237 28.3512 141.434 28.2468C141.597 28.1595 141.779 28.1138 141.963 28.1138C142.148 28.1138 142.33 28.1595 142.493 28.2468C142.687 28.3512 142.905 28.4058 143.127 28.4058C143.348 28.4058 143.566 28.3512 143.761 28.2468C143.925 28.1595 144.109 28.1138 144.295 28.1138C144.482 28.1138 144.665 28.1595 144.829 28.2468C145.025 28.3512 145.243 28.4058 145.465 28.4058C145.687 28.4058 145.906 28.3512 146.101 28.2468L146.18 28.2051ZM146.278 29.5684V30.8351L145.212 31.8855V29.5684H144.174V32.9112L143.111 33.9586V29.5684H142.065V34.9931L141.014 36.0303V29.5684H139.963V37.0691L138.9 38.1194V29.5684H137.872V29.1745C138.065 29.2639 138.276 29.3077 138.488 29.3021C138.7 29.2966 138.908 29.242 139.096 29.1428C139.258 29.0547 139.44 29.0086 139.625 29.0086C139.81 29.0086 139.992 29.0547 140.154 29.1428C140.351 29.2479 140.571 29.303 140.795 29.303C141.019 29.303 141.239 29.2479 141.436 29.1428C141.598 29.0547 141.78 29.0086 141.965 29.0086C142.15 29.0086 142.332 29.0547 142.494 29.1428C142.688 29.2479 142.907 29.303 143.128 29.303C143.35 29.303 143.568 29.2479 143.763 29.1428C143.926 29.0547 144.11 29.0086 144.297 29.0086C144.483 29.0086 144.667 29.0547 144.831 29.1428C145.026 29.2479 145.244 29.303 145.466 29.303C145.688 29.303 145.906 29.2479 146.101 29.1428C146.251 29.0637 146.417 29.0186 146.587 29.0109C146.757 29.0032 146.926 29.033 147.083 29.098L147.558 29.5684H146.278ZM133.592 32.8534H134.052V33.5474H133.592V32.8534ZM135.948 32.8534H136.408V33.5474H135.948V32.8534ZM135.522 34.4332C135.359 34.5204 135.18 34.5737 134.996 34.5894C134.811 34.6054 134.625 34.5837 134.449 34.5255L134.451 33.9341C134.441 33.8593 134.448 33.7834 134.471 33.7114C134.493 33.6392 134.531 33.5729 134.582 33.5164C134.632 33.4599 134.694 33.4147 134.764 33.3838C134.833 33.3528 134.909 33.3367 134.985 33.3367C135.061 33.3367 135.137 33.3528 135.206 33.3838C135.276 33.4147 135.338 33.4599 135.388 33.5164C135.439 33.5729 135.477 33.6392 135.499 33.7114C135.522 33.7834 135.529 33.8593 135.519 33.9341L135.522 34.4332ZM133.935 35.2411L133.466 34.7809C133.729 34.7259 134.003 34.7588 134.245 34.8746C134.44 34.9797 134.659 35.0349 134.882 35.0349C135.104 35.0349 135.323 34.9797 135.518 34.8746C135.682 34.7881 135.865 34.7427 136.051 34.7427C136.237 34.7427 136.42 34.7881 136.583 34.8746C136.78 34.9759 136.997 35.0309 137.219 35.0354C137.441 35.04 137.66 34.9938 137.861 34.9007V35.358C137.665 35.4624 137.447 35.517 137.225 35.517C137.003 35.517 136.784 35.4624 136.589 35.358C136.425 35.2707 136.242 35.225 136.056 35.225C135.87 35.225 135.686 35.2707 135.522 35.358C135.327 35.4624 135.109 35.517 134.887 35.517C134.666 35.517 134.447 35.4624 134.252 35.358C134.154 35.3012 134.047 35.2616 133.935 35.2411ZM136.591 37.1629C136.342 37.029 136.051 36.9935 135.776 37.0634L135.435 36.7256C135.606 36.6216 135.802 36.563 136.004 36.5557C136.205 36.5483 136.405 36.5925 136.583 36.6839C136.779 36.7876 136.997 36.8418 137.219 36.8418C137.441 36.8418 137.66 36.7876 137.855 36.6839L137.861 37.1629C137.666 37.2673 137.447 37.3219 137.226 37.3219C137.004 37.3219 136.786 37.2673 136.591 37.1629ZM137.861 38.0025C137.546 38.1691 137.177 38.2064 136.834 38.1064L136.202 37.4831C136.337 37.4971 136.468 37.5388 136.585 37.6057C136.78 37.7108 136.998 37.7658 137.22 37.7658C137.442 37.7658 137.66 37.7108 137.855 37.6057L137.861 38.0025ZM137.855 38.4454L137.872 39.1335L137.334 38.6013C137.517 38.5889 137.695 38.5356 137.855 38.4454ZM137.855 35.8008L137.861 36.2381C137.665 36.3425 137.447 36.3971 137.225 36.3971C137.003 36.3971 136.784 36.3425 136.589 36.2381C136.425 36.1514 136.242 36.106 136.056 36.106C135.87 36.106 135.686 36.1514 135.522 36.2381C135.39 36.3157 135.243 36.3654 135.09 36.3838L134.641 35.9408C134.941 35.9946 135.25 35.9452 135.518 35.801C135.682 35.7136 135.865 35.6679 136.051 35.6679C136.237 35.6679 136.42 35.7136 136.583 35.801C136.779 35.9059 136.997 35.9611 137.219 35.9611C137.441 35.9611 137.66 35.9059 137.855 35.801V35.8008ZM134.692 23.1439V29.5684H135.73V22.1182L136.789 21.0722V29.5684H137.872L137.862 34.4375C137.661 34.5337 137.443 34.5873 137.22 34.5949V34.1072H136.867L136.868 32.8592H137.259V32.034H135.478V32.5692H135.121V31.718C135.372 31.5752 135.991 31.7382 135.991 31.7382C135.899 31.6444 135.789 31.5703 135.667 31.5208C135.546 31.471 135.415 31.4468 135.283 31.4496C135.391 31.2708 136.151 31.2909 136.151 31.2909C135.659 31.0183 135.391 31.1453 135.391 31.1453C135.512 30.8467 136.151 30.7125 136.151 30.7125C135.983 30.659 135.803 30.6498 135.629 30.6857C135.456 30.7216 135.295 30.8015 135.162 30.9173C135.261 30.7314 135.39 30.5632 135.546 30.4196C135.719 30.2999 135.135 30.3865 134.96 30.6979C134.785 30.3865 134.213 30.2999 134.388 30.4196C134.543 30.5636 134.672 30.7317 134.772 30.9173C134.639 30.8015 134.477 30.7218 134.304 30.6858C134.13 30.6499 133.95 30.6592 133.781 30.7125C133.781 30.7125 134.422 30.8467 134.541 31.1453C134.541 31.1453 134.273 31.0183 133.781 31.2909C133.781 31.2909 134.543 31.2708 134.649 31.4496C134.518 31.447 134.387 31.4712 134.266 31.5208C134.144 31.5705 134.034 31.6444 133.943 31.7382C133.943 31.7382 134.56 31.5752 134.811 31.718V32.5692H134.454V32.034H132.673V32.8592H133.064V34.1072H132.784L128.187 29.5684H129.422V28.3479L130.476 27.309V29.5684H131.528V26.269L132.572 25.2373V29.5684H133.629V24.1957L134.692 23.1439ZM141.328 27.8617C141.158 27.93 140.977 27.9647 140.793 27.9637C140.61 27.9628 140.429 27.926 140.26 27.8559V27.3495C140.251 27.2747 140.258 27.1987 140.281 27.1267C140.303 27.0547 140.341 26.9883 140.391 26.9319C140.442 26.8754 140.504 26.8301 140.574 26.7992C140.643 26.7682 140.719 26.7521 140.795 26.7521C140.871 26.7521 140.946 26.7682 141.016 26.7992C141.086 26.8301 141.148 26.8754 141.198 26.9319C141.249 26.9883 141.286 27.0547 141.309 27.1267C141.332 27.1987 141.338 27.2747 141.329 27.3495L141.328 27.8617ZM141.76 26.269H142.221V26.9599H141.76V26.269Z" fill="#828483"/>
</svg>
