<svg width="40" height="40" viewBox="0 0 40 40" fill="none" xmlns="http://www.w3.org/2000/svg">
<path d="M1 1H39V39H1V1Z" fill="white" stroke="#E03E52" stroke-width="2"/>
<path d="M19.9867 6.66663C12.6267 6.66663 6.66669 12.64 6.66669 20C6.66669 27.36 12.6267 33.3333 19.9867 33.3333C27.36 33.3333 33.3334 27.36 33.3334 20C33.3334 12.64 27.36 6.66663 19.9867 6.66663ZM29.2267 14.6666H25.2934C24.8667 13 24.2534 11.4 23.4534 9.91996C25.9067 10.76 27.9467 12.4666 29.2267 14.6666ZM20 9.38663C21.1067 10.9866 21.9734 12.76 22.5467 14.6666H17.4534C18.0267 12.76 18.8934 10.9866 20 9.38663ZM9.68002 22.6666C9.46669 21.8133 9.33335 20.92 9.33335 20C9.33335 19.08 9.46669 18.1866 9.68002 17.3333H14.1867C14.08 18.2133 14 19.0933 14 20C14 20.9066 14.08 21.7866 14.1867 22.6666H9.68002ZM10.7734 25.3333H14.7067C15.1334 27 15.7467 28.6 16.5467 30.08C14.0934 29.24 12.0534 27.5466 10.7734 25.3333ZM14.7067 14.6666H10.7734C12.0534 12.4533 14.0934 10.76 16.5467 9.91996C15.7467 11.4 15.1334 13 14.7067 14.6666ZM20 30.6133C18.8934 29.0133 18.0267 27.24 17.4534 25.3333H22.5467C21.9734 27.24 21.1067 29.0133 20 30.6133ZM23.12 22.6666H16.88C16.76 21.7866 16.6667 20.9066 16.6667 20C16.6667 19.0933 16.76 18.2 16.88 17.3333H23.12C23.24 18.2 23.3334 19.0933 23.3334 20C23.3334 20.9066 23.24 21.7866 23.12 22.6666ZM23.4534 30.08C24.2534 28.6 24.8667 27 25.2934 25.3333H29.2267C27.9467 27.5333 25.9067 29.24 23.4534 30.08ZM25.8134 22.6666C25.92 21.7866 26 20.9066 26 20C26 19.0933 25.92 18.2133 25.8134 17.3333H30.32C30.5334 18.1866 30.6667 19.08 30.6667 20C30.6667 20.92 30.5334 21.8133 30.32 22.6666H25.8134Z" fill="#E03E52"/>
</svg>
