<svg width="32" height="32" viewBox="0 0 32 32" fill="none" xmlns="http://www.w3.org/2000/svg">
<path d="M15.9867 2.66663C8.62669 2.66663 2.66669 8.63996 2.66669 16C2.66669 23.36 8.62669 29.3333 15.9867 29.3333C23.36 29.3333 29.3334 23.36 29.3334 16C29.3334 8.63996 23.36 2.66663 15.9867 2.66663ZM25.2267 10.6666H21.2934C20.8667 8.99996 20.2534 7.39996 19.4534 5.91996C21.9067 6.75996 23.9467 8.46663 25.2267 10.6666ZM16 5.38663C17.1067 6.98663 17.9734 8.75996 18.5467 10.6666H13.4534C14.0267 8.75996 14.8934 6.98663 16 5.38663ZM5.68002 18.6666C5.46669 17.8133 5.33335 16.92 5.33335 16C5.33335 15.08 5.46669 14.1866 5.68002 13.3333H10.1867C10.08 14.2133 10 15.0933 10 16C10 16.9066 10.08 17.7866 10.1867 18.6666H5.68002ZM6.77335 21.3333H10.7067C11.1334 23 11.7467 24.6 12.5467 26.08C10.0934 25.24 8.05335 23.5466 6.77335 21.3333ZM10.7067 10.6666H6.77335C8.05335 8.45329 10.0934 6.75996 12.5467 5.91996C11.7467 7.39996 11.1334 8.99996 10.7067 10.6666ZM16 26.6133C14.8934 25.0133 14.0267 23.24 13.4534 21.3333H18.5467C17.9734 23.24 17.1067 25.0133 16 26.6133ZM19.12 18.6666H12.88C12.76 17.7866 12.6667 16.9066 12.6667 16C12.6667 15.0933 12.76 14.2 12.88 13.3333H19.12C19.24 14.2 19.3334 15.0933 19.3334 16C19.3334 16.9066 19.24 17.7866 19.12 18.6666ZM19.4534 26.08C20.2534 24.6 20.8667 23 21.2934 21.3333H25.2267C23.9467 23.5333 21.9067 25.24 19.4534 26.08ZM21.8134 18.6666C21.92 17.7866 22 16.9066 22 16C22 15.0933 21.92 14.2133 21.8134 13.3333H26.32C26.5334 14.1866 26.6667 15.08 26.6667 16C26.6667 16.92 26.5334 17.8133 26.32 18.6666H21.8134Z" fill="#E03E52"/>
</svg>
